<?xml version="1.0" standalone="no"?>
<!DOCTYPE svg PUBLIC "-//W3C//DTD SVG 20010904//EN"
 "http://www.w3.org/TR/2001/REC-SVG-20010904/DTD/svg10.dtd">
<svg version="1.0" xmlns="http://www.w3.org/2000/svg"
 width="923.000000pt" height="923.000000pt" viewBox="0 0 923.000000 923.000000"
 preserveAspectRatio="xMidYMid meet">
<metadata>
Created by potrace 1.16, written by Peter Selinger 2001-2019
</metadata>
<g transform="translate(0.000000,923.000000) scale(0.100000,-0.100000)"
fill="#000000" stroke="none">
<path d="M0 4615 l0 -4615 4615 0 4615 0 0 4615 0 4615 -4615 0 -4615 0 0
-4615z m5650 1415 c83 -43 130 -122 130 -217 0 -227 -260 -324 -413 -154 -112
124 -51 334 113 386 53 17 119 11 170 -15z m-1838 -15 c23 -17 56 -53 73 -80
27 -43 30 -57 30 -125 0 -68 -3 -82 -30 -126 -19 -30 -49 -60 -79 -79 -43 -26
-58 -30 -120 -29 -79 0 -132 22 -177 71 -47 50 -63 93 -63 163 1 77 24 131 80
180 57 50 90 61 171 57 61 -2 78 -7 115 -32z m996 -201 c111 -4 202 -9 202
-13 0 -10 -765 -760 -770 -755 -8 8 24 51 86 117 54 57 59 65 38 63 -14 0 -27
-9 -30 -19 -3 -11 -12 -16 -20 -13 -9 3 -12 1 -9 -4 3 -6 -5 -14 -19 -20 -14
-5 -26 -15 -26 -21 0 -13 -88 -3 -107 12 -7 7 -14 6 -18 -2 -6 -8 -10 -7 -17
5 -10 17 -48 22 -48 6 0 -5 -6 -10 -14 -10 -9 0 -12 -7 -9 -20 3 -11 0 -20 -6
-20 -5 0 -8 7 -5 15 4 8 2 15 -4 15 -15 0 -33 -26 -24 -35 4 -5 2 -5 -5 -2
-16 10 -69 -85 -88 -158 -8 -33 -15 -82 -15 -111 0 -70 32 -189 71 -265 18
-35 34 -75 36 -88 2 -13 11 -33 19 -45 34 -49 8 -34 -68 40 -46 44 -147 140
-224 214 l-141 135 491 497 c307 311 497 496 506 493 8 -2 106 -7 218 -11z
m-1527 -381 c41 -43 85 -90 98 -105 l23 -26 -269 -227 c-147 -124 -269 -231
-270 -238 -1 -7 30 -39 69 -72 141 -118 387 -335 394 -347 4 -7 -4 -3 -18 10
-13 12 -28 19 -33 15 -4 -5 -4 -2 0 6 6 11 4 13 -8 8 -9 -3 -17 -3 -19 1 -2 4
-59 50 -127 101 -105 79 -127 92 -142 83 -14 -9 -22 -8 -34 4 -9 10 -22 13
-33 9 -9 -4 -60 -9 -112 -10 -52 -2 -104 -4 -114 -6 -14 -3 -25 8 -42 41 -70
137 -52 303 47 423 15 19 132 114 259 212 127 97 233 181 236 186 10 16 19 10
95 -68z m2937 -75 c286 -220 315 -247 359 -334 49 -100 56 -193 23 -288 -18
-51 -26 -63 -36 -55 -9 7 -33 8 -66 4 -76 -11 -128 -12 -122 -4 2 4 -3 10 -12
13 -8 3 -12 2 -9 -4 3 -6 -1 -10 -9 -10 -10 0 -13 -6 -9 -17 5 -13 2 -15 -11
-10 -10 4 -24 7 -32 7 -9 0 -12 5 -9 10 4 6 12 7 18 3 7 -4 6 0 -2 10 -16 20
-22 22 -18 6 1 -6 -4 -14 -12 -17 -8 -3 -11 0 -7 7 13 20 0 12 -25 -16 -13
-16 -17 -22 -9 -15 17 14 40 16 40 2 0 -5 -8 -10 -18 -10 -10 0 -24 -6 -31
-12 -11 -10 -13 -10 -7 0 13 23 -3 12 -121 -79 -65 -50 -128 -95 -142 -100
-13 -5 -38 -19 -55 -31 -62 -42 68 74 327 291 81 68 147 127 147 131 0 5 -46
46 -103 92 -104 85 -365 301 -421 350 l-31 27 95 99 c52 55 98 100 103 101 4
0 96 -67 205 -151z m-3298 -2238 l0 -50 -135 0 -135 0 0 -167 c-1 -158 -2
-166 -15 -128 -8 22 -15 41 -15 43 0 9 -37 -1 -52 -15 -17 -15 -18 -12 -20 93
-3 154 -3 163 -12 171 -4 5 -61 6 -127 4 l-119 -3 0 51 0 51 315 0 315 0 0
-50z m1490 -4 l0 -45 178 -3 c177 -3 179 -3 221 -31 57 -38 91 -109 91 -193 0
-53 -3 -62 -17 -60 -10 0 -23 7 -29 15 -9 12 -14 11 -32 -7 l-22 -22 0 58 c0
76 -25 117 -79 132 -22 6 -100 9 -173 8 l-133 -3 -3 -80 c-2 -48 -6 -74 -11
-66 -7 11 -16 11 -55 -2 l-46 -16 0 180 0 179 55 0 55 0 0 -44z m-997 -79 c21
-16 46 -45 56 -65 20 -41 40 -158 22 -132 -9 12 -11 12 -11 1 0 -11 -3 -11
-15 -1 -8 6 -20 8 -26 4 -8 -4 -9 -3 -5 4 4 7 3 12 -3 12 -5 0 -15 -8 -20 -17
-6 -10 -11 -12 -11 -5 0 6 -7 12 -15 12 -8 0 -15 -6 -16 -12 0 -10 -2 -10 -6
0 -2 6 -11 12 -19 12 -9 0 -13 -4 -10 -9 3 -5 -8 -11 -24 -13 -17 -3 -30 -2
-30 2 0 3 -48 2 -107 -3 -60 -4 -126 -6 -147 -3 -22 2 -35 2 -29 -2 8 -5 7
-10 -2 -19 -7 -7 -17 -8 -26 -2 -8 5 -29 9 -46 9 -39 0 -49 25 -39 98 8 58 47
109 107 140 42 22 53 23 215 20 170 -3 171 -3 207 -31z m827 -22 l0 -55 -253
0 c-213 0 -256 -2 -275 -16 -26 -18 -52 -64 -52 -92 0 -24 -30 -53 -31 -31 0
10 -2 11 -6 1 -2 -6 -9 -10 -14 -6 -5 3 -12 -2 -15 -10 -3 -9 -12 -16 -20 -16
-10 0 -14 14 -14 53 0 97 60 185 145 215 18 6 134 11 283 11 l252 1 0 -55z
m946 -145 c60 -110 112 -200 115 -200 6 0 134 230 193 348 l26 52 65 0 c36 0
65 -3 65 -7 0 -3 -26 -54 -59 -112 -32 -58 -91 -168 -131 -244 -39 -75 -78
-144 -87 -152 -9 -10 -34 -15 -68 -15 -49 0 -56 3 -78 33 -43 56 -267 466
-267 487 0 6 25 10 59 10 l59 0 108 -200z m992 186 c75 -39 112 -112 112 -221
l0 -75 -177 -2 c-98 -2 -213 -3 -256 -3 -68 0 -77 -2 -77 -18 0 -10 13 -32 29
-48 l29 -29 221 0 221 0 0 -60 0 -60 -217 0 c-120 0 -234 5 -254 10 -45 13
-106 70 -130 124 -21 47 -26 176 -9 238 14 50 67 117 110 139 30 16 58 19 203
19 125 0 175 -4 195 -14z m607 -5 c48 -22 79 -54 100 -103 12 -29 15 -78 15
-223 l0 -186 -57 3 -58 3 -5 182 c-7 238 2 227 -185 231 l-135 4 0 -211 0
-211 -60 0 -60 0 0 265 0 265 203 0 c175 0 207 -3 242 -19z"/>
<path d="M5498 5904 c-58 -31 -76 -117 -33 -159 20 -21 34 -25 80 -25 69 0
105 28 105 84 0 92 -76 142 -152 100z"/>
<path d="M3630 5903 c-54 -37 -72 -91 -46 -141 18 -35 33 -42 95 -42 81 0 121
47 101 120 -19 71 -94 102 -150 63z"/>
<path d="M3010 2933 c-11 -15 -20 -36 -18 -46 3 -18 11 -20 98 -19 52 1 137
-2 188 -6 52 -4 96 -4 98 0 3 4 12 5 22 2 10 -4 13 -3 6 3 -6 4 -15 19 -19 33
-17 58 -25 60 -196 60 l-158 0 -21 -27z"/>
<path d="M5815 2936 c-14 -14 -25 -34 -25 -46 0 -19 5 -20 190 -20 180 0 190
1 190 19 0 10 -9 29 -19 42 -18 23 -26 24 -165 27 -144 3 -146 3 -171 -22z"/>
</g>
</svg>
